<?xml version="1.0" encoding="UTF-8" standalone="no"?>
<!-- Created with Inkscape (http://www.inkscape.org/) -->

<svg
   xmlns:dc="http://purl.org/dc/elements/1.1/"
   xmlns:cc="http://creativecommons.org/ns#"
   xmlns:rdf="http://www.w3.org/1999/02/22-rdf-syntax-ns#"
   xmlns:svg="http://www.w3.org/2000/svg"
   xmlns="http://www.w3.org/2000/svg"
   xmlns:sodipodi="http://sodipodi.sourceforge.net/DTD/sodipodi-0.dtd"
   xmlns:inkscape="http://www.inkscape.org/namespaces/inkscape"
   width="210mm"
   height="297mm"
   id="svg3019"
   version="1.1"
   inkscape:version="0.48.4 r9939"
   sodipodi:docname="New document 2">
  <defs
     id="defs3" />
  <sodipodi:namedview
     inkscape:document-units="mm"
     id="base"
     pagecolor="#ffffff"
     bordercolor="#666666"
     borderopacity="1.0"
     inkscape:pageopacity="0.0"
     inkscape:pageshadow="2"
     inkscape:zoom="0.35"
     inkscape:cx="350"
     inkscape:cy="466.9019"
     inkscape:current-layer="layer1"
     showgrid="false"
     inkscape:window-width="767"
     inkscape:window-height="555"
     inkscape:window-x="349"
     inkscape:window-y="131"
     inkscape:window-maximized="0" />
  <metadata
     id="metadata4">
    <rdf:RDF>
      <cc:Work
         rdf:about="">
        <dc:format>image/svg+xml</dc:format>
        <dc:type
           rdf:resource="http://purl.org/dc/dcmitype/StillImage" />
        <dc:title></dc:title>
      </cc:Work>
    </rdf:RDF>
  </metadata>
  <g
     inkscape:label="Layer 1"
     inkscape:groupmode="layer"
     id="layer1">
    <path
       style="fill:#000000"
       d="m 184.23014,271.78842 c -1.59171,-1.49414 -2.89401,-6.07841 -2.89401,-10.18729 l 0,-7.47069 -24.95672,0 -24.95673,0 -3.78933,9.05538 c -2.75476,6.58308 -5.17982,9.05537 -8.88236,9.05537 -2.80118,0 -5.70998,-1.50917 -6.46402,-3.35371 -0.75403,-1.84453 5.24892,-18.08547 13.33989,-36.09097 8.09097,-18.0055 14.71086,-33.17123 14.71086,-33.70163 0,-0.53038 -4.47242,-1.52745 -9.9387,-2.21569 -11.3756,-1.43226 -15.44874,-4.29024 -13.36811,-9.37993 0.98331,-2.40538 4.56556,-3.54793 11.12383,-3.54793 l 9.67344,0 0.65185,-46.97474 0.65185,-46.974732 21.10213,-0.654096 21.10212,-0.654101 0,-6.426196 c 0,-3.534402 1.62788,-7.694394 3.61751,-9.244427 5.1303,-3.996779 10.85252,0.924014 10.85252,9.332565 l 0,6.514334 21.65611,0 21.65612,0 0.65185,46.974733 0.65184,46.97473 7.65833,0.69683 c 16.18235,1.4724 15.14663,11.28755 -1.41108,13.37227 -6.03346,0.75965 -9.69561,2.29095 -9.06405,3.79007 0.58283,1.38348 7.25891,16.54698 14.83572,33.69666 7.57681,17.14967 13.16117,32.6853 12.40968,34.5236 -2.69843,6.60095 -10.88534,3.67547 -15.98775,-5.71301 l -4.92137,-9.05538 -24.0677,0 -24.0677,0 0,7.47069 c 0,6.74476 -3.45333,12.9039 -7.23502,12.9039 -0.79585,0 -2.7493,-1.22247 -4.341,-2.71661 z m 6.75268,-39.29809 c 0,-21.79474 -0.90802,-34.95595 -2.41168,-34.95595 -1.50766,0 -2.41167,13.62759 -2.41167,36.35509 0,23.66025 0.84214,35.86652 2.41167,34.95596 1.43931,-0.83502 2.41168,-15.49311 2.41168,-36.3551 z m -54.93484,0.0172 c 8.73776,-19.36342 14.63405,-34.81762 13.10287,-34.34275 -2.33014,0.72265 -32.22204,62.64101 -32.75587,67.85082 -0.0957,0.93384 0.71255,1.69789 1.79609,1.69789 1.08354,0 9.11915,-15.84272 17.85691,-35.20606 z m 124.19695,32.37616 c -17.41575,-41.33079 -29.9018,-67.34932 -32.3203,-67.34932 -3.54462,0 -3.65819,-0.31817 12.52476,35.08955 6.2598,13.69625 12.3147,27.19442 13.45532,29.99592 1.14062,2.80151 3.30208,5.09365 4.80324,5.09365 1.50116,0 2.1928,-1.27342 1.53698,-2.8298 z m -79.42283,-45.39806 0.6918,-22.19367 -12.35145,0.68716 -12.35147,0.68717 -9.24265,20.3569 c -6.62191,14.58474 -8.44453,20.8475 -6.42788,22.08712 1.54812,0.95163 10.95416,1.46895 20.90231,1.14961 l 18.08754,-0.58063 0.6918,-22.19366 z m 57.66769,20.49579 c -0.68337,-1.55639 -5.30187,-11.74369 -10.26333,-22.63843 l -9.02084,-19.80862 -11.69973,0 -11.69973,0 0,22.63842 0,22.63843 21.96306,0 c 16.62534,0 21.6611,-0.68773 20.72057,-2.8298 z m 13.037,-49.4328 c 1.99437,-1.18542 -24.14354,-2.00029 -64.16148,-2.00029 -40.1453,0 -66.1587,0.81313 -64.15286,2.0053 4.39776,2.6138 123.91628,2.60914 128.31434,-0.005 z m -17.13389,-53.00608 0,-44.144933 -12.13405,0 c -8.56107,0 -12.5428,0.999909 -13.52221,3.395764 -2.0305,4.967049 -39.45887,4.967049 -39.45887,0 0,-2.60685 -3.08158,-3.395764 -13.26419,-3.395764 l -13.26419,0 0,44.144933 0,44.14493 45.82175,0 45.82176,0 0,-44.14493 z M 196.40908,94.023801 c -4.31086,-0.502177 -11.36501,-0.502177 -15.67587,0 -4.31086,0.502183 -0.78379,0.913057 7.83793,0.913057 8.62173,0 12.1488,-0.410874 7.83794,-0.913057 z m -5.42626,-12.079005 c 0,-4.040275 -1.00465,-6.342282 -2.41168,-5.526 -1.32641,0.769523 -2.41167,3.885834 -2.41167,6.925135 0,3.039301 1.08526,5.526 2.41167,5.526 1.32642,0 2.41168,-3.116311 2.41168,-6.925135 z"
       id="path3090"
       inkscape:connector-curvature="0" />
  </g>
</svg>
